Simulation
nRows=48
nColumns=15
endheader
time  TH_x TH_y TH_z SC_y  SC_z  SC_x  AC_y  AC_z  AC_x  GH_y  GH_z  GH_yy  EL_x  PS_y
0.0  0.000000  0.000000  0.000000  -40.97484877243665  6.293857566463187  5.290427962726946  39.03144340109962  -2.2919615299819114  -7.266864030532977  90.28871523455116  6.6049507959779135  -59.55189378337151  22.661684942138557  120.000000
0.05745  0.000000  0.000000  0.000000  -38.997082677729644  4.768210696213769  3.8673094226258575  39.903608816095414  -2.482705689375644  -6.321135835728553  46.9060727238279  7.115937189858332  -19.39559784632241  22.07050893511988  120.000000
0.1149  0.000000  0.000000  0.000000  -37.06763656722288  3.1805581366619604  2.2905465560310376  40.841642833262014  -2.757591921056253  -5.224457468872949  20.458795961890534  10.255761975275318  3.8694320469683148  21.649092406406083  120.000000
0.17235  0.000000  0.000000  0.000000  -35.302028311194206  1.531077979700261  0.5297277727917937  41.86282170101399  -3.1267069602944395  -3.87815566171551  7.009660063669807  14.37559816632252  14.213007141955543  21.483031180191826  120.000000
0.2298  0.000000  0.000000  0.000000  -33.827662997900646  -0.20150274702712265  -1.3997636542536158  43.03771422962134  -3.570351664620865  -2.2239177288340963  -0.9163439161427112  18.901963142026155  19.13944077160104  21.591485573565215  120.000000
0.28725  0.000000  0.000000  0.000000  -32.73172779390227  -1.9876469208297227  -3.468971497817457  44.39117244514644  -4.003448878345718  -0.270222093249307  -6.231983574149376  23.656646582658812  21.57574126243452  21.91591991617925  120.000000
0.3447  0.000000  0.000000  0.000000  -32.033909417062446  -3.715318385170673  -5.626810974256669  45.858189887476605  -4.292440318954884  1.9097405483399137  -10.067361668140599  28.492464797043535  22.667849134581793  22.3570818328536  120.000000
0.40215  0.000000  0.000000  0.000000  -31.68850646552098  -5.205680244717796  -7.801602296735055  47.30740151907464  -4.279146928811427  4.191991875040295  -12.906392548450084  33.22773790682968  22.911744977622455  22.794389851382732  120.000000
0.4596  0.000000  0.000000  0.000000  -31.60367967307554  -6.238453487227316  -9.901919363496555  48.59911261073043  -3.828422156602563  6.428181897340443  -14.99483948306214  37.66768134638705  22.571881311866655  23.124817233950246  120.000000
0.51705  0.000000  0.000000  0.000000  -31.735608565910315  -6.614250953078413  -11.829949201693557  49.63421722203187  -2.8784458067932555  8.497494345323954  -16.465062467332483  41.66020212099728  21.81016147127139  23.280596150575388  120.000000
0.5745  0.000000  0.000000  0.000000  -32.149279887224665  -6.247070181856089  -13.519760132634838  50.386868436072945  -1.4377514057732  10.355270004465208  -17.374414526112936  45.13514337526246  20.73625270195302  23.232482401589987  120.000000
0.63195  0.000000  0.000000  0.000000  -33.016837313066645  -5.19225593659349  -14.96437517679827  50.92454944377695  0.44863680751811347  12.054338824530278  -17.700363699278796  48.10636602723057  19.39945826619037  22.99416934936095  120.000000
0.6894  0.000000  0.000000  0.000000  -34.4943917550998  -3.624685513614845  -16.15159579691135  51.37368265383525  2.6995896254323055  13.685930917347271  -17.39053712625429  50.636861821108624  17.809056296440364  22.613245829178297  120.000000
0.74685  0.000000  0.000000  0.000000  -36.59921567174992  -1.7736772138307064  -17.02507607894116  51.86237241801571  5.199776598653611  15.295783917726558  -16.456251082011267  52.79295376869536  15.966365230541955  22.145391315758015  120.000000
0.8043  0.000000  0.000000  0.000000  -39.17202870547132  0.13754574743288353  -17.511304644863213  52.46029993600863  7.830102580211407  16.851936508918374  -15.040397563163504  54.607969798889066  13.890974480600471  21.632456327803077  120.000000
0.86175  0.000000  0.000000  0.000000  -41.93761007442383  1.939697654355344  -17.537835352768198  53.15669657937117  10.477391170612751  18.274107218910995  -13.387327937255257  56.07591803673178  11.622519148550547  21.104246802648376  120.000000
0.9192  0.000000  0.000000  0.000000  -44.58489244335798  3.549689288174164  -17.04289127731515  53.89807549799975  13.040091951474976  19.46363107148943  -11.75354319944271  57.18440194322784  9.212064275039586  20.583426963283316  120.000000
0.97665  0.000000  0.000000  0.000000  -46.86154845093757  4.950656307423575  -15.974865406428428  54.61763043165322  15.423592189219132  20.354541284725247  -10.335338695466348  57.954061180420325  6.732573145693428  20.088071445743715  120.000000
1.0341  0.000000  0.000000  0.000000  -48.644255589521286  6.163164725855865  -14.321984205607173  55.2635840066944  17.540191122817056  20.939655762877234  -9.23420767798189  58.441728196779785  4.289763717593526  19.628723958295243  120.000000
1.09155  0.000000  0.000000  0.000000  -49.9436640300916  7.216439107548289  -12.14050446412757  55.80884239384913  19.32382023158316  21.2596187351004  -8.460857551455977  58.73036653506295  2.0192897032944015  19.205954866483516  120.000000
1.149  0.000000  0.000000  0.000000  -50.85821197805937  8.130825576458426  -9.550366874487626  56.245464940837735  20.748783870854176  21.38200767676058  -7.965886829650787  58.907468858972  0.0630504306954594  18.81533740077662  120.000000
1.20645  0.000000  0.000000  0.000000  -51.50719272023505  8.908125377528561  -6.715318135936546  56.57728802183559  21.83062361320173  21.37666138641835  -7.675635956063241  59.04491458048341  -1.4702007638734687  18.451732173928683  120.000000
1.2639  0.000000  0.000000  0.000000  -51.98608565893975  9.537239411195353  -3.816435784704144  56.81593947341532  22.607621413439865  21.29713053404228  -7.518291647115854  59.18608531275548  -2.538782255570251  18.112403248584652  120.000000
1.32135  0.000000  0.000000  0.000000  -52.3491573728104  10.005764829572984  -1.0342533531872147  56.98056966435516  23.1236835822116  21.17141366308012  -7.434620623168102  59.34966880742843  -3.1831812646643165  17.798967987241603  120.000000
1.3788  0.000000  0.000000  0.000000  -52.61328866720575  10.30893523720042  1.466190013394614  57.09669451962709  23.42053569844474  21.00556624922441  -7.382659161392089  59.535284087010176  -3.5109779404303474  17.51772565816335  120.000000
1.43625  0.000000  0.000000  0.000000  -52.774427871823455  10.455388721040629  3.5395379842701966  57.19396054711402  23.533473792954936  20.791661138058448  -7.337155510691069  59.73147218516174  -3.6643267717201273  17.27723915893079  120.000000
1.4937  0.000000  0.000000  0.000000  -52.82163930607647  10.46383543030202  5.065084029027333  57.30008200750381  23.489603928384163  20.517802180665615  -7.289299695887299  59.919441774591604  -3.7808393003660146  17.085681706502186  120.000000
1.55115  0.000000  0.000000  0.000000  -52.748563264908995  10.357725919184057  5.949951771963415  57.436436893098296  23.304155699977436  20.177784038368838  -7.241059398690339  60.07773318793352  -3.9644299408716823  16.949189103443413  120.000000
1.6086  0.000000  0.000000  0.000000  -52.556436032861235  10.156630512337543  6.134839813896655  57.6131090477778  22.97851118602573  19.7796248560129  -7.199178601797261  60.18639772679283  -4.269251251276372  16.871257140237386  120.000000
1.66605  0.000000  0.000000  0.000000  -52.25439637327689  9.868884105922474  5.6011397985252  57.826156828658455  22.500304739621114  19.35155808737342  -7.168278874928376  60.23198493848334  -4.698785766127005  16.85205618910711  120.000000
1.7235  0.000000  0.000000  0.000000  -51.856535460369116  9.488469215411977  4.376702078010968  58.05803674618553  21.847065864733942  18.939704022101157  -7.1487225909777035  60.21341706089153  -5.2144406968344965  16.885756850771966  120.000000
1.78095  0.000000  0.000000  0.000000  -51.37705600405577  8.995366227877795  2.5409979822668327  58.28019038721172  20.9949401790736  18.59720093585496  -7.143130363971705  60.14109427278816  -5.749249892248207  16.9571887964743  120.000000
1.8384  0.000000  0.000000  0.000000  -50.82538564181392  8.365609999986107  0.22018495012759512  58.45750487234619  19.925788399666207  18.367888286118358  -7.165705517300177  60.03178262024422  -6.225980333070503  17.04287650012759  120.000000
1.89585  0.000000  0.000000  0.000000  -50.194738106514805  7.582433880146628  -2.424140532802763  58.55061279960866  18.636798403782326  18.273345036897233  -7.250635939242272  59.89354905620353  -6.577217923080825  17.116773903632765  120.000000
1.9533  0.000000  0.000000  0.000000  -49.45140264682992  6.645722174875377  -5.217246563988594  58.51825011034175  17.14963229100191  18.305378606093665  -7.45177459417907  59.71067197967456  -6.766568966356472  17.15832726349242  120.000000
2.01075  0.000000  0.000000  0.000000  -48.5285251112258  5.572721956256498  -7.993725287334031  58.31824625718682  15.517927374342078  18.42583219911645  -7.83659286454463  59.429000099213695  -6.801965092873201  17.157585969873207  120.000000
2.0682  0.000000  0.000000  0.000000  -47.339754715351354  4.39217174113307  -10.615916819881432  57.915917440253956  13.827860293918189  18.572411938944658  -8.468349346314904  58.95290487768319  -6.735708191411028  17.114018838589963  120.000000
2.1256500000000003  0.000000  0.000000  0.000000  -45.813387934725974  3.139498899406076  -12.983116673699525  57.29326912470839  12.186601583488518  18.67218276962911  -9.379693096002162  58.16070763420491  -6.644934653463033  17.029560222584905  120.000000
2.1831  0.000000  0.000000  0.000000  -43.944582349941186  1.8563404399857335  -15.036422229164357  56.46374779711741  10.697472369958007  18.661852607957105  -10.534589882526918  56.93985253402837  -6.600711620877803  16.903262684777317  120.000000
2.24055  0.000000  0.000000  0.000000  -41.832353056978775  0.5907774309177033  -16.763660339836317  55.47453528808735  9.434600803250518  18.509294217919287  -11.802215225196973  55.22505977063676  -6.637662668814393  16.72849186181865  120.000000
2.298  0.000000  0.000000  0.000000  -39.67522495024469  -0.6022757795547293  -18.192616469254695  54.386864554493265  8.438569521329063  18.22933881704723  -12.9640599058296  53.01340772979482  -6.739393748522403  16.495341980185046  120.000000
2.3554500000000003  0.000000  0.000000  0.000000  -37.70201015141584  -1.6496950336207685  -19.383711792535305  53.256190085472106  7.73388071349126  17.86289225648771  -13.765040055933643  50.34388989790819  -6.843441414136685  16.192407922317326  120.000000
2.4129  0.000000  0.000000  0.000000  -36.093402706683484  -2.4699969477757695  -20.412629108156015  52.10020013089631  7.347809448987887  17.4579509484982  -13.990036936460923  47.254260959982915  -6.8546722556546  15.811863382551824  120.000000
2.47035  0.000000  0.000000  0.000000  -34.93427052719811  -2.991057693674929  -21.35798380842621  50.8863219792025  7.312651723404826  17.061029069976772  -13.510162003489649  43.761258576593285  -6.669988075076528  15.36041194930751  120.000000
2.5278  0.000000  0.000000  0.000000  -34.21481616873311  -3.168487782287778  -22.29109000117417  49.565460771214575  7.654154295938913  16.706601115386313  -12.252441952070338  39.89231423225539  -6.232818668562483  14.871573818327159  120.000000
2.5852500000000003  0.000000  0.000000  0.000000  -33.87902831788345  -2.997171338817799  -23.226019980376716  48.10872654328455  8.34574110570466  16.415595422887474  -10.14086360512624  35.72556178722164  -5.586170896184273  14.40659323207414  120.000000
2.6427  0.000000  0.000000  0.000000  -33.86748241842782  -2.527227218025137  -24.090069645856094  46.53813824821161  9.291031454445749  16.172271597815204  -7.084980962399422  31.398857350933465  -4.890625648607642  14.03028623685615  120.000000
2.70015  0.000000  0.000000  0.000000  -34.143856687402206  -1.8502943062630848  -24.76524247556864  44.93218887215926  10.361852336465864  15.936744262233246  -2.987171402983373  27.079438497709802  -4.423285930952469  13.78935973616764  120.000000
